{
  "accessors": [
    {
      "bufferView": 2,
      "componentType": 5126,
      "count": 12324,
      "max": [
        104.56553649902344,
        87.07428741455078,
        1106.866455078125
      ],
      "min": [
        -111.68341064453125,
        -142.31668090820313,
        0.0
      ],
      "type": "VEC3"
    },
    {
      "bufferView": 2,
      "byteOffset": 147888,
      "componentType": 5126,
      "count": 12324,
      "max": [
        0.9996470212936401,
        0.9999740719795227,
        0.9977169632911682
      ],
      "min": [
        -0.9999201893806458,
        -0.9999913573265076,
        -0.9989628791809082
      ],
      "type": "VEC3"
    },
    {
      "bufferView": 3,
      "componentType": 5126,
      "count": 12324,
      "max": [
        0.999953031539917,
        0.9999794960021973,
        0.9998106360435486,
        1.0
      ],
      "min": [
        -0.9999999403953552,
        -0.9999822378158569,
        -0.9996920824050903,
        -1.0
      ],
      "type": "VEC4"
    },
    {
      "bufferView": 1,
      "componentType": 5126,
      "count": 12324,
      "max": [
        2.6015625,
        13.4921875
      ],
      "min": [
        -3.45703125,
        -0.974609375
      ],
      "type": "VEC2"
    },
    {
      "bufferView": 1,
      "byteOffset": 98592,
      "componentType": 5126,
      "count": 12324,
      "max": [
        2.6015625,
        13.4921875
      ],
      "min": [
        -3.45703125,
        -0.974609375
      ],
      "type": "VEC2"
    },
    {
      "bufferView": 0,
      "componentType": 5125,
      "count": 32628,
      "type": "SCALAR"
    },
    {
      "bufferView": 2,
      "byteOffset": 295776,
      "componentType": 5126,
      "count": 115,
      "max": [
        38.883060455322266,
        34.84891128540039,
        448.5989074707031
      ],
      "min": [
        -49.501285552978516,
        -33.66851043701172,
        126.41124725341797
      ],
      "type": "VEC3"
    },
    {
      "bufferView": 2,
      "byteOffset": 297156,
      "componentType": 5126,
      "count": 115,
      "max": [
        0.9289564490318298,
        0.9602642059326172,
        0.9944085478782654
      ],
      "min": [
        -0.9300453662872314,
        -0.9720672369003296,
        -0.8801090121269226
      ],
      "type": "VEC3"
    },
    {
      "bufferView": 1,
      "byteOffset": 197184,
      "componentType": 5126,
      "count": 115,
      "max": [
        2.0078125,
        0.82763671875
      ],
      "min": [
        -0.61181640625,
        -0.6826171875
      ],
      "type": "VEC2"
    },
    {
      "bufferView": 1,
      "byteOffset": 198104,
      "componentType": 5126,
      "count": 115,
      "max": [
        2.0078125,
        0.82763671875
      ],
      "min": [
        -0.61181640625,
        -0.6826171875
      ],
      "type": "VEC2"
    },
    {
      "bufferView": 0,
      "byteOffset": 130512,
      "componentType": 5125,
      "count": 186,
      "type": "SCALAR"
    },
    {
      "bufferView": 2,
      "byteOffset": 298536,
      "componentType": 5126,
      "count": 353,
      "max": [
        62.15121841430664,
        70.7643814086914,
        1111.485595703125
      ],
      "min": [
        -90.54409790039063,
        -114.47830200195313,
        103.66214752197266
      ],
      "type": "VEC3"
    },
    {
      "bufferView": 2,
      "byteOffset": 302772,
      "componentType": 5126,
      "count": 353,
      "max": [
        0.9777329564094543,
        0.9965903162956238,
        0.9789332151412964
      ],
      "min": [
        -0.98175448179245,
        -0.9992383122444153,
        -0.9538796544075012
      ],
      "type": "VEC3"
    },
    {
      "bufferView": 1,
      "byteOffset": 199024,
      "componentType": 5126,
      "count": 353,
      "max": [
        1.0,
        0.999969482421875
      ],
      "min": [
        3.0517578125e-05,
        0.0
      ],
      "type": "VEC2"
    },
    {
      "bufferView": 1,
      "byteOffset": 201848,
      "componentType": 5126,
      "count": 353,
      "max": [
        1.0,
        0.999969482421875
      ],
      "min": [
        3.0517578125e-05,
        0.0
      ],
      "type": "VEC2"
    },
    {
      "bufferView": 0,
      "byteOffset": 131256,
      "componentType": 5125,
      "count": 411,
      "type": "SCALAR"
    },
    {
      "bufferView": 2,
      "byteOffset": 307008,
      "componentType": 5126,
      "count": 26643,
      "max": [
        164.4464874267578,
        141.93679809570313,
        1143.218994140625
      ],
      "min": [
        -193.08682250976563,
        -179.65768432617188,
        101.35477447509766
      ],
      "type": "VEC3"
    },
    {
      "bufferView": 2,
      "byteOffset": 626724,
      "componentType": 5126,
      "count": 26643,
      "max": [
        0.9999385476112366,
        0.9996383190155029,
        0.9483839869499207
      ],
      "min": [
        -0.9944109320640564,
        -0.9999476075172424,
        -0.7142100930213928
      ],
      "type": "VEC3"
    },
    {
      "bufferView": 3,
      "byteOffset": 197184,
      "componentType": 5126,
      "count": 26643,
      "max": [
        0.9999209642410278,
        0.9999590516090393,
        0.997305691242218,
        1.0
      ],
      "min": [
        -0.9999691843986511,
        -0.9999741315841675,
        -0.9999592304229736,
        -1.0
      ],
      "type": "VEC4"
    },
    {
      "bufferView": 1,
      "byteOffset": 204672,
      "componentType": 5126,
      "count": 26643,
      "max": [
        0.91357421875,
        0.531982421875
      ],
      "min": [
        0.0258636474609375,
        0.001953125
      ],
      "type": "VEC2"
    },
    {
      "bufferView": 1,
      "byteOffset": 417816,
      "componentType": 5126,
      "count": 26643,
      "max": [
        0.91357421875,
        0.531982421875
      ],
      "min": [
        0.0258636474609375,
        0.001953125
      ],
      "type": "VEC2"
    },
    {
      "bufferView": 0,
      "byteOffset": 132900,
      "componentType": 5125,
      "count": 54390,
      "type": "SCALAR"
    }
  ],
  "asset": {
    "extras": {
      "author": "ElectroNick (https://sketchfab.com/ElectroNick)",
      "license": "CC-BY-4.0 (http://creativecommons.org/licenses/by/4.0/)",
      "source": "https://sketchfab.com/3d-models/cypress-tree-249d8cb553a8469e9d645713f8e96ed1",
      "title": "Cypress tree"
    },
    "generator": "Sketchfab-12.65.0",
    "version": "2.0"
  },
  "bufferViews": [
    {
      "buffer": 0,
      "byteLength": 350460,
      "name": "floatBufferViews",
      "target": 34963
    },
    {
      "buffer": 0,
      "byteLength": 630960,
      "byteOffset": 350460,
      "byteStride": 8,
      "name": "floatBufferViews",
      "target": 34962
    },
    {
      "buffer": 0,
      "byteLength": 946440,
      "byteOffset": 981420,
      "byteStride": 12,
      "name": "floatBufferViews",
      "target": 34962
    },
    {
      "buffer": 0,
      "byteLength": 623472,
      "byteOffset": 1927860,
      "byteStride": 16,
      "name": "floatBufferViews",
      "target": 34962
    }
  ],
  "buffers": [
    {
      "byteLength": 2551332,
      "uri": "scene.bin"
    }
  ],
  "images": [
    {
      "uri": "textures/Cypress_bark_baseColor.png"
    },
    {
      "uri": "textures/Cypress_bark_emissive.png"
    },
    {
      "uri": "textures/Cypress_bark_normal.png"
    },
    {
      "uri": "textures/Cypress_2_sided_baseColor.png"
    },
    {
      "uri": "textures/Cypress_2_sided_normal.png"
    }
  ],
  "materials": [
    {
      "doubleSided": true,
      "emissiveFactor": [
        0.1995056819218211,
        0.1995056819218211,
        0.1995056819218211
      ],
      "emissiveTexture": {
        "index": 1
      },
      "name": "Cypress_bark",
      "normalTexture": {
        "index": 2
      },
      "pbrMetallicRoughness": {
        "baseColorTexture": {
          "index": 0
        },
        "metallicFactor": 0.0,
        "roughnessFactor": 0.6
      }
    },
    {
      "doubleSided": true,
      "name": "Cypress_bark.1",
      "pbrMetallicRoughness": {
        "baseColorFactor": [
          0.588,
          0.588,
          0.588,
          1.0
        ],
        "metallicFactor": 0.0,
        "roughnessFactor": 0.6
      }
    },
    {
      "doubleSided": true,
      "name": "Cypress_bark.2",
      "pbrMetallicRoughness": {
        "baseColorFactor": [
          0.588,
          0.588,
          0.588,
          1.0
        ],
        "metallicFactor": 0.0,
        "roughnessFactor": 0.6
      }
    },
    {
      "alphaMode": "BLEND",
      "doubleSided": true,
      "name": "Cypress_2_sided",
      "normalTexture": {
        "index": 4
      },
      "pbrMetallicRoughness": {
        "baseColorTexture": {
          "index": 3
        },
        "metallicFactor": 0.0,
        "roughnessFactor": 0.6
      }
    }
  ],
  "meshes": [
    {
      "name": "Cypress_V2_test_Cypress_bark_0",
      "primitives": [
        {
          "attributes": {
            "NORMAL": 1,
            "POSITION": 0,
            "TANGENT": 2,
            "TEXCOORD_0": 3,
            "TEXCOORD_1": 4
          },
          "indices": 5,
          "material": 0,
          "mode": 4
        }
      ]
    },
    {
      "name": "Cypress_V2_test_Cypress_bark.1_0",
      "primitives": [
        {
          "attributes": {
            "NORMAL": 7,
            "POSITION": 6,
            "TEXCOORD_0": 8,
            "TEXCOORD_1": 9
          },
          "indices": 10,
          "material": 1,
          "mode": 4
        }
      ]
    },
    {
      "name": "Cypress_V2_test_Cypress_bark.2_0",
      "primitives": [
        {
          "attributes": {
            "NORMAL": 12,
            "POSITION": 11,
            "TEXCOORD_0": 13,
            "TEXCOORD_1": 14
          },
          "indices": 15,
          "material": 2,
          "mode": 4
        }
      ]
    },
    {
      "name": "Cypress_V2_test_Cypress_2_sided_0",
      "primitives": [
        {
          "attributes": {
            "NORMAL": 17,
            "POSITION": 16,
            "TANGENT": 18,
            "TEXCOORD_0": 19,
            "TEXCOORD_1": 20
          },
          "indices": 21,
          "material": 3,
          "mode": 4
        }
      ]
    }
  ],
  "nodes": [
    {
      "children": [
        1
      ],
      "matrix": [
        0.004642436280846596,
        0.0,
        0.0,
        0.0,
        0.0,
        1.030827929870214e-18,
        -0.004642436280846596,
        0.0,
        0.0,
        0.004642436280846596,
        1.030827929870214e-18,
        0.0,
        0.0,
        0.0,
        0.0,
        1.0
      ],
      "name": "Sketchfab_model"
    },
    {
      "children": [
        2
      ],
      "matrix": [
        1.0,
        0.0,
        0.0,
        0.0,
        0.0,
        0.0,
        1.0,
        0.0,
        0.0,
        -1.0,
        0.0,
        0.0,
        0.0,
        0.0,
        0.0,
        1.0
      ],
      "name": "cdf5df8fd79e4e0b852a82ac39b138e1.fbx"
    },
    {
      "children": [
        3
      ],
      "name": "RootNode"
    },
    {
      "children": [
        4,
        5,
        6,
        7
      ],
      "matrix": [
        1.0,
        0.0,
        0.0,
        0.0,
        0.0,
        2.220446049250313e-16,
        -1.0,
        0.0,
        0.0,
        1.0,
        2.220446049250313e-16,
        0.0,
        0.0,
        1.4529306492601151e-15,
        0.0,
        1.0
      ],
      "name": "Cypress_V2_test"
    },
    {
      "mesh": 0,
      "name": "Cypress_V2_test_Cypress_bark_0"
    },
    {
      "mesh": 1,
      "name": "Cypress_V2_test_Cypress_bark.1_0"
    },
    {
      "mesh": 2,
      "name": "Cypress_V2_test_Cypress_bark.2_0"
    },
    {
      "mesh": 3,
      "name": "Cypress_V2_test_Cypress_2_sided_0"
    }
  ],
  "samplers": [
    {
      "magFilter": 9729,
      "minFilter": 9987,
      "wrapS": 10497,
      "wrapT": 10497
    }
  ],
  "scene": 0,
  "scenes": [
    {
      "name": "Sketchfab_Scene",
      "nodes": [
        0
      ]
    }
  ],
  "textures": [
    {
      "sampler": 0,
      "source": 0
    },
    {
      "sampler": 0,
      "source": 1
    },
    {
      "sampler": 0,
      "source": 2
    },
    {
      "sampler": 0,
      "source": 3
    },
    {
      "sampler": 0,
      "source": 4
    }
  ]
}
