{
  "accessors": [
    {
      "bufferView": 2,
      "componentType": 5126,
      "count": 65532,
      "max": [
        4.814873218536377,
        5.182736873626709,
        5.051022052764893
      ],
      "min": [
        -4.649241924285889,
        -1.2764610052108765,
        1.315585970878601
      ],
      "type": "VEC3"
    },
    {
      "bufferView": 2,
      "byteOffset": 786384,
      "componentType": 5126,
      "count": 65532,
      "max": [
        0.9998299479484558,
        0.9998899698257446,
        0.9999328851699829
      ],
      "min": [
        -0.9998387694358826,
        -0.9999390840530396,
        -0.9997215867042542
      ],
      "type": "VEC3"
    },
    {
      "bufferView": 1,
      "componentType": 5126,
      "count": 65532,
      "max": [
        0.9998480081558228,
        0.9917719960212708
      ],
      "min": [
        0.0007859999896027148,
        0.006738000083714724
      ],
      "type": "VEC2"
    },
    {
      "bufferView": 0,
      "componentType": 5125,
      "count": 369345,
      "type": "SCALAR"
    },
    {
      "bufferView": 2,
      "byteOffset": 1572768,
      "componentType": 5126,
      "count": 65532,
      "max": [
        4.634194850921631,
        4.701651096343994,
        5.169703960418701
      ],
      "min": [
        -4.873733997344971,
        -3.1562108993530273,
        1.301826000213623
      ],
      "type": "VEC3"
    },
    {
      "bufferView": 2,
      "byteOffset": 2359152,
      "componentType": 5126,
      "count": 65532,
      "max": [
        0.9990324974060059,
        0.9999701976776123,
        0.9998903274536133
      ],
      "min": [
        -0.9995530247688293,
        -0.9999524354934692,
        -0.9993366003036499
      ],
      "type": "VEC3"
    },
    {
      "bufferView": 1,
      "byteOffset": 524256,
      "componentType": 5126,
      "count": 65532,
      "max": [
        0.998753011226654,
        0.9965559840202332
      ],
      "min": [
        0.002090000081807375,
        0.004215000197291374
      ],
      "type": "VEC2"
    },
    {
      "bufferView": 0,
      "byteOffset": 1477380,
      "componentType": 5125,
      "count": 358395,
      "type": "SCALAR"
    },
    {
      "bufferView": 2,
      "byteOffset": 3145536,
      "componentType": 5126,
      "count": 65532,
      "max": [
        4.604959011077881,
        4.122767925262451,
        5.046131134033203
      ],
      "min": [
        -4.122138023376465,
        -3.5223259925842285,
        -0.010803000070154667
      ],
      "type": "VEC3"
    },
    {
      "bufferView": 2,
      "byteOffset": 3931920,
      "componentType": 5126,
      "count": 65532,
      "max": [
        0.9997825026512146,
        0.9999327659606934,
        0.9999772310256958
      ],
      "min": [
        -0.99991774559021,
        -0.999925971031189,
        -0.999995231628418
      ],
      "type": "VEC3"
    },
    {
      "bufferView": 1,
      "byteOffset": 1048512,
      "componentType": 5126,
      "count": 65532,
      "max": [
        0.9996280074119568,
        0.9981259703636169
      ],
      "min": [
        0.004658999852836132,
        4.199999966658652e-05
      ],
      "type": "VEC2"
    },
    {
      "bufferView": 0,
      "byteOffset": 2910960,
      "componentType": 5125,
      "count": 351444,
      "type": "SCALAR"
    },
    {
      "bufferView": 2,
      "byteOffset": 4718304,
      "componentType": 5126,
      "count": 65532,
      "max": [
        3.2649600505828857,
        4.7418670654296875,
        4.7298431396484375
      ],
      "min": [
        -1.7204949855804443,
        -4.673104763031006,
        1.1692049503326416
      ],
      "type": "VEC3"
    },
    {
      "bufferView": 2,
      "byteOffset": 5504688,
      "componentType": 5126,
      "count": 65532,
      "max": [
        0.9999663829803467,
        0.9998047947883606,
        0.999902606010437
      ],
      "min": [
        -0.999997615814209,
        -0.9999345541000366,
        -0.999985933303833
      ],
      "type": "VEC3"
    },
    {
      "bufferView": 1,
      "byteOffset": 1572768,
      "componentType": 5126,
      "count": 65532,
      "max": [
        0.9986050128936768,
        0.9977579712867737
      ],
      "min": [
        0.002741999924182892,
        4.999999873689376e-06
      ],
      "type": "VEC2"
    },
    {
      "bufferView": 0,
      "byteOffset": 4316736,
      "componentType": 5125,
      "count": 350901,
      "type": "SCALAR"
    },
    {
      "bufferView": 2,
      "byteOffset": 6291072,
      "componentType": 5126,
      "count": 65532,
      "max": [
        0.8106529712677002,
        4.3201141357421875,
        5.323668956756592
      ],
      "min": [
        -4.888381004333496,
        -4.7986650466918945,
        0.9695889949798584
      ],
      "type": "VEC3"
    },
    {
      "bufferView": 2,
      "byteOffset": 7077456,
      "componentType": 5126,
      "count": 65532,
      "max": [
        0.9998312592506409,
        0.999955415725708,
        0.9999880790710449
      ],
      "min": [
        -0.9997764229774475,
        -0.9997047781944275,
        -0.9999957084655762
      ],
      "type": "VEC3"
    },
    {
      "bufferView": 1,
      "byteOffset": 2097024,
      "componentType": 5126,
      "count": 65532,
      "max": [
        0.9990950226783752,
        0.9962310194969177
      ],
      "min": [
        0.0012550000101327896,
        0.003938000183552504
      ],
      "type": "VEC2"
    },
    {
      "bufferView": 0,
      "byteOffset": 5720340,
      "componentType": 5125,
      "count": 344373,
      "type": "SCALAR"
    },
    {
      "bufferView": 2,
      "byteOffset": 7863840,
      "componentType": 5126,
      "count": 65532,
      "max": [
        2.332998037338257,
        2.5587921142578125,
        5.513016223907471
      ],
      "min": [
        -4.848845958709717,
        -4.035522937774658,
        -0.028950000181794167
      ],
      "type": "VEC3"
    },
    {
      "bufferView": 2,
      "byteOffset": 8650224,
      "componentType": 5126,
      "count": 65532,
      "max": [
        0.9999489784240723,
        0.9990544319152832,
        0.9999728202819824
      ],
      "min": [
        -0.9999755620956421,
        -0.9999904632568359,
        -0.9999924898147583
      ],
      "type": "VEC3"
    },
    {
      "bufferView": 1,
      "byteOffset": 2621280,
      "componentType": 5126,
      "count": 65532,
      "max": [
        0.9997400045394897,
        0.9979069828987122
      ],
      "min": [
        9.999999974752427e-07,
        0.0011080000549554825
      ],
      "type": "VEC2"
    },
    {
      "bufferView": 0,
      "byteOffset": 7097832,
      "componentType": 5125,
      "count": 322503,
      "type": "SCALAR"
    },
    {
      "bufferView": 2,
      "byteOffset": 9436608,
      "componentType": 5126,
      "count": 43231,
      "max": [
        2.5656070709228516,
        4.191952228546143,
        5.126255035400391
      ],
      "min": [
        -1.2978320121765137,
        -4.707530975341797,
        1.1200289726257324
      ],
      "type": "VEC3"
    },
    {
      "bufferView": 2,
      "byteOffset": 9955380,
      "componentType": 5126,
      "count": 43231,
      "max": [
        0.9998892545700073,
        0.9972947835922241,
        0.9999563694000244
      ],
      "min": [
        -0.9990919232368469,
        -0.9999145269393921,
        -0.9999611377716064
      ],
      "type": "VEC3"
    },
    {
      "bufferView": 1,
      "byteOffset": 3145536,
      "componentType": 5126,
      "count": 43231,
      "max": [
        0.9999949932098389,
        0.9958800077438354
      ],
      "min": [
        0.003502999898046255,
        0.00014200000441633165
      ],
      "type": "VEC2"
    },
    {
      "bufferView": 0,
      "byteOffset": 8387844,
      "componentType": 5125,
      "count": 199302,
      "type": "SCALAR"
    }
  ],
  "asset": {
    "extras": {
      "author": "Lassi Kaukonen (https://sketchfab.com/thesidekick)",
      "license": "CC-BY-4.0 (http://creativecommons.org/licenses/by/4.0/)",
      "source": "https://sketchfab.com/3d-models/cosmos-flower-a7b24492647640ab9c0efcd58995df7f",
      "title": "Cosmos Flower"
    },
    "generator": "Sketchfab-12.68.0",
    "version": "2.0"
  },
  "bufferViews": [
    {
      "buffer": 0,
      "byteLength": 9185052,
      "name": "floatBufferViews",
      "target": 34963
    },
    {
      "buffer": 0,
      "byteLength": 3491384,
      "byteOffset": 9185052,
      "byteStride": 8,
      "name": "floatBufferViews",
      "target": 34962
    },
    {
      "buffer": 0,
      "byteLength": 10474152,
      "byteOffset": 12676436,
      "byteStride": 12,
      "name": "floatBufferViews",
      "target": 34962
    }
  ],
  "buffers": [
    {
      "byteLength": 23150588,
      "uri": "scene.bin"
    }
  ],
  "images": [
    {
      "uri": "textures/Pink_cosmos_flower_baseColor.jpeg"
    }
  ],
  "materials": [
    {
      "doubleSided": true,
      "name": "Pink_cosmos_flower",
      "pbrMetallicRoughness": {
        "baseColorTexture": {
          "index": 0
        },
        "metallicFactor": 0.0
      }
    }
  ],
  "meshes": [
    {
      "name": "Object_0",
      "primitives": [
        {
          "attributes": {
            "NORMAL": 1,
            "POSITION": 0,
            "TEXCOORD_0": 2
          },
          "indices": 3,
          "material": 0,
          "mode": 4
        }
      ]
    },
    {
      "name": "Object_1",
      "primitives": [
        {
          "attributes": {
            "NORMAL": 5,
            "POSITION": 4,
            "TEXCOORD_0": 6
          },
          "indices": 7,
          "material": 0,
          "mode": 4
        }
      ]
    },
    {
      "name": "Object_2",
      "primitives": [
        {
          "attributes": {
            "NORMAL": 9,
            "POSITION": 8,
            "TEXCOORD_0": 10
          },
          "indices": 11,
          "material": 0,
          "mode": 4
        }
      ]
    },
    {
      "name": "Object_3",
      "primitives": [
        {
          "attributes": {
            "NORMAL": 13,
            "POSITION": 12,
            "TEXCOORD_0": 14
          },
          "indices": 15,
          "material": 0,
          "mode": 4
        }
      ]
    },
    {
      "name": "Object_4",
      "primitives": [
        {
          "attributes": {
            "NORMAL": 17,
            "POSITION": 16,
            "TEXCOORD_0": 18
          },
          "indices": 19,
          "material": 0,
          "mode": 4
        }
      ]
    },
    {
      "name": "Object_5",
      "primitives": [
        {
          "attributes": {
            "NORMAL": 21,
            "POSITION": 20,
            "TEXCOORD_0": 22
          },
          "indices": 23,
          "material": 0,
          "mode": 4
        }
      ]
    },
    {
      "name": "Object_6",
      "primitives": [
        {
          "attributes": {
            "NORMAL": 25,
            "POSITION": 24,
            "TEXCOORD_0": 26
          },
          "indices": 27,
          "material": 0,
          "mode": 4
        }
      ]
    }
  ],
  "nodes": [
    {
      "children": [
        1
      ],
      "matrix": [
        1.0,
        0.0,
        0.0,
        0.0,
        0.0,
        2.220446049250313e-16,
        -1.0,
        0.0,
        0.0,
        1.0,
        2.220446049250313e-16,
        0.0,
        0.0,
        0.0,
        0.0,
        1.0
      ],
      "name": "Sketchfab_model"
    },
    {
      "children": [
        2,
        3,
        4,
        5,
        6,
        7,
        8
      ],
      "name": "Pink_cosmos_flower_SF.obj.cleaner.materialmerger.gles"
    },
    {
      "mesh": 0,
      "name": "Object_2"
    },
    {
      "mesh": 1,
      "name": "Object_3"
    },
    {
      "mesh": 2,
      "name": "Object_4"
    },
    {
      "mesh": 3,
      "name": "Object_5"
    },
    {
      "mesh": 4,
      "name": "Object_6"
    },
    {
      "mesh": 5,
      "name": "Object_7"
    },
    {
      "mesh": 6,
      "name": "Object_8"
    }
  ],
  "samplers": [
    {
      "magFilter": 9729,
      "minFilter": 9987,
      "wrapS": 10497,
      "wrapT": 10497
    }
  ],
  "scene": 0,
  "scenes": [
    {
      "name": "Sketchfab_Scene",
      "nodes": [
        0
      ]
    }
  ],
  "textures": [
    {
      "sampler": 0,
      "source": 0
    }
  ]
}
