{
  "accessors": [
    {
      "bufferView": 2,
      "componentType": 5126,
      "count": 70,
      "max": [
        1.9213299751281738,
        21.17530059814453,
        2.0175700187683105
      ],
      "min": [
        1.8313299417495728,
        20.05030059814453,
        0.0
      ],
      "type": "VEC3"
    },
    {
      "bufferView": 2,
      "byteOffset": 840,
      "componentType": 5126,
      "count": 70,
      "max": [
        1.0,
        0.7071068286895752,
        1.1121999995240481e-13
      ],
      "min": [
        -0.9999939799308777,
        -1.5937504061367346e-15,
        -1.0
      ],
      "type": "VEC3"
    },
    {
      "bufferView": 1,
      "componentType": 5126,
      "count": 70,
      "max": [
        41.5265007019043,
        84.2665023803711
      ],
      "min": [
        -41.592498779296875,
        0.0
      ],
      "type": "VEC2"
    },
    {
      "bufferView": 0,
      "componentType": 5125,
      "count": 156,
      "type": "SCALAR"
    },
    {
      "bufferView": 2,
      "byteOffset": 1680,
      "componentType": 5126,
      "count": 192,
      "max": [
        1.9481500387191772,
        21.075000762939453,
        1.092650055885315
      ],
      "min": [
        1.8013299703598022,
        20.952899932861328,
        1.0522799491882324
      ],
      "type": "VEC3"
    },
    {
      "bufferView": 2,
      "byteOffset": 3984,
      "componentType": 5126,
      "count": 192,
      "max": [
        0.003449589479714632,
        0.9914448857307434,
        0.9914448857307434
      ],
      "min": [
        -0.003449589479714632,
        -0.9914448857307434,
        -0.9914448857307434
      ],
      "type": "VEC3"
    },
    {
      "bufferView": 1,
      "byteOffset": 560,
      "componentType": 5126,
      "count": 192,
      "max": [
        35.82899856567383,
        80.56230163574219
      ],
      "min": [
        -36.19770050048828,
        -79.44010162353516
      ],
      "type": "VEC2"
    },
    {
      "bufferView": 0,
      "byteOffset": 624,
      "componentType": 5125,
      "count": 288,
      "type": "SCALAR"
    },
    {
      "bufferView": 2,
      "byteOffset": 6288,
      "componentType": 5126,
      "count": 356,
      "max": [
        1.9482200145721436,
        21.093700408935547,
        1.092650055885315
      ],
      "min": [
        1.8013299703598022,
        20.93280029296875,
        1.0522799491882324
      ],
      "type": "VEC3"
    },
    {
      "bufferView": 2,
      "byteOffset": 10560,
      "componentType": 5126,
      "count": 356,
      "max": [
        0.9999939799308777,
        0.9914448857307434,
        1.0
      ],
      "min": [
        -1.0,
        -0.9914448857307434,
        -1.0
      ],
      "type": "VEC3"
    },
    {
      "bufferView": 1,
      "byteOffset": 2096,
      "componentType": 5126,
      "count": 356,
      "max": [
        7.052949905395508,
        15.882599830627441
      ],
      "min": [
        -15.894700050354004,
        -15.637800216674805
      ],
      "type": "VEC2"
    },
    {
      "bufferView": 0,
      "byteOffset": 1776,
      "componentType": 5125,
      "count": 720,
      "type": "SCALAR"
    },
    {
      "bufferView": 2,
      "byteOffset": 14832,
      "componentType": 5126,
      "count": 436,
      "max": [
        1.9373199939727783,
        21.17530059814453,
        2.109369993209839
      ],
      "min": [
        1.811329960823059,
        20.05030059814453,
        0.0
      ],
      "type": "VEC3"
    },
    {
      "bufferView": 2,
      "byteOffset": 20064,
      "componentType": 5126,
      "count": 436,
      "max": [
        1.0,
        1.0,
        1.0
      ],
      "min": [
        -1.0,
        -1.0,
        -1.0
      ],
      "type": "VEC3"
    },
    {
      "bufferView": 1,
      "byteOffset": 4944,
      "componentType": 5126,
      "count": 436,
      "max": [
        42.35049819946289,
        42.35049819946289
      ],
      "min": [
        -52.87350082397461,
        -19.842500686645508
      ],
      "type": "VEC2"
    },
    {
      "bufferView": 0,
      "byteOffset": 4656,
      "componentType": 5125,
      "count": 870,
      "type": "SCALAR"
    },
    {
      "bufferView": 2,
      "byteOffset": 25296,
      "componentType": 5126,
      "count": 52,
      "max": [
        1.937250018119812,
        21.075000762939453,
        1.092650055885315
      ],
      "min": [
        1.811329960823059,
        20.952999114990234,
        1.0522799491882324
      ],
      "type": "VEC3"
    },
    {
      "bufferView": 2,
      "byteOffset": 25920,
      "componentType": 5126,
      "count": 52,
      "max": [
        1.0,
        0.0034793599043041468,
        0.0
      ],
      "min": [
        -0.9999939799308777,
        0.0,
        -4.993770154337884e-14
      ],
      "type": "VEC3"
    },
    {
      "bufferView": 1,
      "byteOffset": 8432,
      "componentType": 5126,
      "count": 52,
      "max": [
        15.365300178527832,
        0.7966240048408508
      ],
      "min": [
        -15.369000434875488,
        0.7671899795532227
      ],
      "type": "VEC2"
    },
    {
      "bufferView": 0,
      "byteOffset": 8136,
      "componentType": 5125,
      "count": 144,
      "type": "SCALAR"
    },
    {
      "bufferView": 2,
      "byteOffset": 26544,
      "componentType": 5126,
      "count": 320,
      "max": [
        1.9264700412750244,
        21.10650062561035,
        2.109369993209839
      ],
      "min": [
        1.821329951286316,
        20.05030059814453,
        0.0
      ],
      "type": "VEC3"
    },
    {
      "bufferView": 2,
      "byteOffset": 30384,
      "componentType": 5126,
      "count": 320,
      "max": [
        0.4852350652217865,
        0.9914448857307434,
        0.9914448857307434
      ],
      "min": [
        -1.0,
        -1.0,
        -0.9914448857307434
      ],
      "type": "VEC3"
    },
    {
      "bufferView": 1,
      "byteOffset": 8848,
      "componentType": 5126,
      "count": 320,
      "max": [
        41.88750076293945,
        42.07720184326172
      ],
      "min": [
        -42.119300842285156,
        -41.517398834228516
      ],
      "type": "VEC2"
    },
    {
      "bufferView": 0,
      "byteOffset": 8712,
      "componentType": 5125,
      "count": 546,
      "type": "SCALAR"
    }
  ],
  "asset": {
    "extras": {
      "author": "Rizal Darmawansyah (https://sketchfab.com/RizalDama)",
      "license": "CC-BY-NC-4.0 (http://creativecommons.org/licenses/by-nc/4.0/)",
      "source": "https://sketchfab.com/3d-models/single-room-door-5f0d3cd8830f4d03aaa23841675bdffb",
      "title": "Single Room Door"
    },
    "generator": "Sketchfab-12.68.0",
    "version": "2.0"
  },
  "bufferViews": [
    {
      "buffer": 0,
      "byteLength": 10896,
      "name": "floatBufferViews",
      "target": 34963
    },
    {
      "buffer": 0,
      "byteLength": 11408,
      "byteOffset": 10896,
      "byteStride": 8,
      "name": "floatBufferViews",
      "target": 34962
    },
    {
      "buffer": 0,
      "byteLength": 34224,
      "byteOffset": 22304,
      "byteStride": 12,
      "name": "floatBufferViews",
      "target": 34962
    }
  ],
  "buffers": [
    {
      "byteLength": 56528,
      "uri": "scene.bin"
    }
  ],
  "images": [
    {
      "uri": "textures/Kayu_Pintu_Jendela_baseColor.jpeg"
    },
    {
      "uri": "textures/Steel_Brushed_Stainless_baseColor.jpeg"
    },
    {
      "uri": "textures/Wood_Veneer_01_baseColor.jpeg"
    },
    {
      "uri": "textures/Metal_Aluminum_Anodized_1_baseColor.jpeg"
    },
    {
      "uri": "textures/Wood_Veneer_01_1_baseColor.jpeg"
    }
  ],
  "materials": [
    {
      "doubleSided": true,
      "name": "FrontColor",
      "pbrMetallicRoughness": {
        "metallicFactor": 0.0
      }
    },
    {
      "doubleSided": true,
      "name": "Kayu_Pintu_Jendela",
      "pbrMetallicRoughness": {
        "baseColorTexture": {
          "index": 0
        },
        "metallicFactor": 0.0
      }
    },
    {
      "doubleSided": true,
      "name": "Steel_Brushed_Stainless",
      "pbrMetallicRoughness": {
        "baseColorTexture": {
          "index": 1
        },
        "metallicFactor": 0.0
      }
    },
    {
      "doubleSided": true,
      "name": "Wood_Veneer_01",
      "pbrMetallicRoughness": {
        "baseColorTexture": {
          "index": 2
        },
        "metallicFactor": 0.0
      }
    },
    {
      "doubleSided": true,
      "name": "Metal_Aluminum_Anodized_1",
      "pbrMetallicRoughness": {
        "baseColorTexture": {
          "index": 3
        },
        "metallicFactor": 0.0
      }
    },
    {
      "doubleSided": true,
      "name": "Wood_Veneer_01_1",
      "pbrMetallicRoughness": {
        "baseColorTexture": {
          "index": 4
        },
        "metallicFactor": 0.0
      }
    }
  ],
  "meshes": [
    {
      "name": "Object_0",
      "primitives": [
        {
          "attributes": {
            "NORMAL": 1,
            "POSITION": 0,
            "TEXCOORD_0": 2
          },
          "indices": 3,
          "material": 0,
          "mode": 4
        }
      ]
    },
    {
      "name": "Object_1",
      "primitives": [
        {
          "attributes": {
            "NORMAL": 5,
            "POSITION": 4,
            "TEXCOORD_0": 6
          },
          "indices": 7,
          "material": 1,
          "mode": 4
        }
      ]
    },
    {
      "name": "Object_2",
      "primitives": [
        {
          "attributes": {
            "NORMAL": 9,
            "POSITION": 8,
            "TEXCOORD_0": 10
          },
          "indices": 11,
          "material": 2,
          "mode": 4
        }
      ]
    },
    {
      "name": "Object_3",
      "primitives": [
        {
          "attributes": {
            "NORMAL": 13,
            "POSITION": 12,
            "TEXCOORD_0": 14
          },
          "indices": 15,
          "material": 3,
          "mode": 4
        }
      ]
    },
    {
      "name": "Object_4",
      "primitives": [
        {
          "attributes": {
            "NORMAL": 17,
            "POSITION": 16,
            "TEXCOORD_0": 18
          },
          "indices": 19,
          "material": 4,
          "mode": 4
        }
      ]
    },
    {
      "name": "Object_5",
      "primitives": [
        {
          "attributes": {
            "NORMAL": 21,
            "POSITION": 20,
            "TEXCOORD_0": 22
          },
          "indices": 23,
          "material": 5,
          "mode": 4
        }
      ]
    }
  ],
  "nodes": [
    {
      "children": [
        1
      ],
      "matrix": [
        0.004899275489151478,
        2.2204194471218134e-16,
        -0.9999880194664001,
        0.0,
        -0.9999880194664001,
        1.0878576904075294e-18,
        -0.004899275489151478,
        0.0,
        0.0,
        1.0,
        2.220446049250313e-16,
        0.0,
        22.4781436920166,
        4.138258237874979e-15,
        -18.63705825805664,
        1.0
      ],
      "name": "Sketchfab_model"
    },
    {
      "children": [
        2,
        3,
        4,
        5,
        6,
        7
      ],
      "name": "pintu.obj.cleaner.materialmerger.gles"
    },
    {
      "mesh": 0,
      "name": "Object_2"
    },
    {
      "mesh": 1,
      "name": "Object_3"
    },
    {
      "mesh": 2,
      "name": "Object_4"
    },
    {
      "mesh": 3,
      "name": "Object_5"
    },
    {
      "mesh": 4,
      "name": "Object_6"
    },
    {
      "mesh": 5,
      "name": "Object_7"
    }
  ],
  "samplers": [
    {
      "magFilter": 9729,
      "minFilter": 9987,
      "wrapS": 10497,
      "wrapT": 10497
    }
  ],
  "scene": 0,
  "scenes": [
    {
      "name": "Sketchfab_Scene",
      "nodes": [
        0
      ]
    }
  ],
  "textures": [
    {
      "sampler": 0,
      "source": 0
    },
    {
      "sampler": 0,
      "source": 1
    },
    {
      "sampler": 0,
      "source": 2
    },
    {
      "sampler": 0,
      "source": 3
    },
    {
      "sampler": 0,
      "source": 4
    }
  ]
}
