{
  "accessors": [
    {
      "bufferView": 2,
      "componentType": 5126,
      "count": 4696,
      "max": [
        0.007197000086307526,
        0.015653999522328377,
        0.6039450168609619
      ],
      "min": [
        -0.007621000055223703,
        -0.01566299982368946,
        0.2828330099582672
      ],
      "type": "VEC3"
    },
    {
      "bufferView": 2,
      "byteOffset": 56352,
      "componentType": 5126,
      "count": 4696,
      "max": [
        0.9997697472572327,
        0.9997720122337341,
        0.9812177419662476
      ],
      "min": [
        -0.9997720122337341,
        -0.9997697472572327,
        -0.9811798334121704
      ],
      "type": "VEC3"
    },
    {
      "bufferView": 1,
      "componentType": 5126,
      "count": 4696,
      "max": [
        0.9872900247573853,
        0.9949759840965271
      ],
      "min": [
        0.0026730000972747803,
        0.34379100799560547
      ],
      "type": "VEC2"
    },
    {
      "bufferView": 0,
      "componentType": 5125,
      "count": 24144,
      "type": "SCALAR"
    },
    {
      "bufferView": 2,
      "byteOffset": 112704,
      "componentType": 5126,
      "count": 7013,
      "max": [
        0.04979199916124344,
        0.04999599978327751,
        0.6273170113563538
      ],
      "min": [
        -0.050209999084472656,
        -0.05000700056552887,
        0.0902710035443306
      ],
      "type": "VEC3"
    },
    {
      "bufferView": 2,
      "byteOffset": 196860,
      "componentType": 5126,
      "count": 7013,
      "max": [
        0.9999922513961792,
        0.9999603033065796,
        0.990021824836731
      ],
      "min": [
        -0.9999901056289673,
        -0.9999356269836426,
        -1.0
      ],
      "type": "VEC3"
    },
    {
      "bufferView": 1,
      "byteOffset": 37568,
      "componentType": 5126,
      "count": 7013,
      "max": [
        1.0075629949569702,
        0.9948009848594666
      ],
      "min": [
        0.003932999912649393,
        0.0047079999931156635
      ],
      "type": "VEC2"
    },
    {
      "bufferView": 0,
      "byteOffset": 96576,
      "componentType": 5125,
      "count": 35982,
      "type": "SCALAR"
    },
    {
      "bufferView": 2,
      "byteOffset": 281016,
      "componentType": 5126,
      "count": 1515,
      "max": [
        0.1309109926223755,
        0.13110600411891937,
        0.28341299295425415
      ],
      "min": [
        -0.1313219964504242,
        -0.1311269998550415,
        0.06931900233030319
      ],
      "type": "VEC3"
    },
    {
      "bufferView": 2,
      "byteOffset": 299196,
      "componentType": 5126,
      "count": 1515,
      "max": [
        0.999872088432312,
        0.999872088432312,
        1.0
      ],
      "min": [
        -0.999872088432312,
        -0.999872088432312,
        -0.9937939643859863
      ],
      "type": "VEC3"
    },
    {
      "bufferView": 1,
      "byteOffset": 93672,
      "componentType": 5126,
      "count": 1515,
      "max": [
        0.9930880069732666,
        0.9959620237350464
      ],
      "min": [
        0.030469000339508057,
        0.05517899990081787
      ],
      "type": "VEC2"
    },
    {
      "bufferView": 0,
      "byteOffset": 240504,
      "componentType": 5125,
      "count": 8160,
      "type": "SCALAR"
    }
  ],
  "asset": {
    "extras": {
      "author": "ocelotlmx (https://sketchfab.com/ocelotlmx)",
      "license": "CC-BY-4.0 (http://creativecommons.org/licenses/by/4.0/)",
      "source": "https://sketchfab.com/3d-models/ceiling-light-with-led-light-bulb-c5b56256f06f47739151bc38ea9fe038",
      "title": "Ceiling Light with led light bulb."
    },
    "generator": "Sketchfab-15.76.0",
    "version": "2.0"
  },
  "bufferViews": [
    {
      "buffer": 0,
      "byteLength": 273144,
      "name": "floatBufferViews",
      "target": 34963
    },
    {
      "buffer": 0,
      "byteLength": 105792,
      "byteOffset": 273144,
      "byteStride": 8,
      "name": "floatBufferViews",
      "target": 34962
    },
    {
      "buffer": 0,
      "byteLength": 317376,
      "byteOffset": 378936,
      "byteStride": 12,
      "name": "floatBufferViews",
      "target": 34962
    }
  ],
  "buffers": [
    {
      "byteLength": 696312,
      "uri": "scene.bin"
    }
  ],
  "extensionsUsed": [
    "KHR_materials_transmission"
  ],
  "images": [
    {
      "uri": "textures/metal_baseColor.png"
    },
    {
      "uri": "textures/metal_metallicRoughness.png"
    },
    {
      "uri": "textures/plastic_baseColor.jpeg"
    },
    {
      "uri": "textures/plastic_metallicRoughness.png"
    },
    {
      "uri": "textures/plastic2_baseColor.png"
    },
    {
      "uri": "textures/plastic2_metallicRoughness.png"
    },
    {
      "uri": "textures/plastic2_transmission.png"
    }
  ],
  "materials": [
    {
      "doubleSided": true,
      "name": "metal",
      "pbrMetallicRoughness": {
        "baseColorTexture": {
          "index": 0
        },
        "metallicRoughnessTexture": {
          "index": 1
        }
      }
    },
    {
      "doubleSided": true,
      "name": "plastic",
      "occlusionTexture": {
        "index": 3
      },
      "pbrMetallicRoughness": {
        "baseColorTexture": {
          "index": 2
        },
        "metallicFactor": 0.0,
        "metallicRoughnessTexture": {
          "index": 3
        }
      }
    },
    {
      "alphaMode": "BLEND",
      "doubleSided": true,
      "extensions": {
        "KHR_materials_transmission": {
          "transmissionFactor": 1.0,
          "transmissionTexture": {
            "index": 6
          }
        }
      },
      "name": "plastic2",
      "occlusionTexture": {
        "index": 5
      },
      "pbrMetallicRoughness": {
        "baseColorTexture": {
          "index": 4
        },
        "metallicFactor": 0.0,
        "metallicRoughnessTexture": {
          "index": 5
        },
        "roughnessFactor": 0.6
      }
    }
  ],
  "meshes": [
    {
      "name": "Object_0",
      "primitives": [
        {
          "attributes": {
            "NORMAL": 1,
            "POSITION": 0,
            "TEXCOORD_0": 2
          },
          "indices": 3,
          "material": 0,
          "mode": 4
        }
      ]
    },
    {
      "name": "Object_1",
      "primitives": [
        {
          "attributes": {
            "NORMAL": 5,
            "POSITION": 4,
            "TEXCOORD_0": 6
          },
          "indices": 7,
          "material": 1,
          "mode": 4
        }
      ]
    },
    {
      "name": "Object_2",
      "primitives": [
        {
          "attributes": {
            "NORMAL": 9,
            "POSITION": 8,
            "TEXCOORD_0": 10
          },
          "indices": 11,
          "material": 2,
          "mode": 4
        }
      ]
    }
  ],
  "nodes": [
    {
      "children": [
        1
      ],
      "matrix": [
        1.0,
        0.0,
        0.0,
        0.0,
        0.0,
        2.220446049250313e-16,
        -1.0,
        0.0,
        0.0,
        1.0,
        2.220446049250313e-16,
        0.0,
        0.0,
        0.0,
        0.0,
        1.0
      ],
      "name": "Sketchfab_model"
    },
    {
      "children": [
        2,
        3,
        4
      ],
      "name": "chandelier.obj.cleaner.materialmerger.gles"
    },
    {
      "mesh": 0,
      "name": "Object_2"
    },
    {
      "mesh": 1,
      "name": "Object_3"
    },
    {
      "mesh": 2,
      "name": "Object_4"
    }
  ],
  "samplers": [
    {
      "magFilter": 9729,
      "minFilter": 9987,
      "wrapS": 10497,
      "wrapT": 10497
    }
  ],
  "scene": 0,
  "scenes": [
    {
      "name": "Sketchfab_Scene",
      "nodes": [
        0
      ]
    }
  ],
  "textures": [
    {
      "sampler": 0,
      "source": 0
    },
    {
      "sampler": 0,
      "source": 1
    },
    {
      "sampler": 0,
      "source": 2
    },
    {
      "sampler": 0,
      "source": 3
    },
    {
      "sampler": 0,
      "source": 4
    },
    {
      "sampler": 0,
      "source": 5
    },
    {
      "sampler": 0,
      "source": 6
    }
  ]
}
